<svg width="45" height="45" fill="none" xmlns="http://www.w3.org/2000/svg"><path d="M41 34.152C41 35.174 40.153 36 39.11 36H23.89c-.5 0-.982-.195-1.336-.541A1.827 1.827 0 0 1 22 34.152c0-.49.2-.96.554-1.306a1.913 1.913 0 0 1 1.337-.542h15.218c.502 0 .983.195 1.337.541.355.347.554.817.554 1.307ZM41 23c0 1.021-.847 1.848-1.89 1.848H4.89c-.5 0-.982-.195-1.336-.541A1.827 1.827 0 0 1 3 23c0-.49.2-.96.554-1.307a1.913 1.913 0 0 1 1.337-.54h34.218c.502 0 .983.194 1.337.54.355.347.554.817.554 1.307Zm-1.89-9.304c.5 0 .982-.195 1.336-.541.355-.347.554-.817.554-1.307s-.2-.96-.554-1.307A1.913 1.913 0 0 0 39.11 10H16.29c-.5 0-.982.195-1.336.541a1.827 1.827 0 0 0-.554 1.307c0 .49.2.96.554 1.306.354.347.835.542 1.337.542h22.818Z" fill="#242424"/></svg>