<svg width="194" height="48" fill="none" xmlns="http://www.w3.org/2000/svg"><g clip-path="url(#a)"><path d="M18.002 30.5H7.001l-3 8H0l12.002-31h1l12.001 31h-4l-3-8Zm-10.001-4h9.001l-3-9-2-5-1 5L8 26.5ZM29.004 16.5h2l1 3c.678-1.029 1.939-2.471 3-3 1.091-.558 1.615 0 3 0 2.95 0 5.557.266 7.002 2 1.444 1.734 2 5.062 2 9 0 1.851-.499 3.501-1 5-.472 1.47-1.116 1.971-2 3-.885 1.029-1.733 2.442-3 3-1.24.558-2.468 1-4.001 1-1.091 0-2.352-.853-3-1-.62-.117-1.264.323-2.001 0v9h-3v-31Zm9 3c-1.503 0-3.115.206-4 1-.855.764-1.646 1.413-2 3v11c.53.411 1.322.765 2 1 .678.206 1.88 1 3 1 2.035 0 3.822-1.501 5.001-3 1.21-1.528 2-3.061 2-6 0-1.205-.793-3.03-1-4-.206-1-.528-1.324-1-2-.442-.705-1.263-1.618-2-2-.708-.382-.939 0-2 0ZM53.007 16.5h2l1 3c.678-1.029 1.939-2.471 3-3 1.091-.558 1.615 0 3 0 2.95 0 5.557.266 7.002 2 1.444 1.734 2 5.062 2 9 0 1.851-.499 3.501-1 5-.472 1.47-1.116 1.971-2 3-.885 1.029-1.733 2.442-3 3-1.24.558-2.468 1-4.001 1-1.091 0-2.352-.853-3-1-.62-.117-1.264.323-2.001 0v9h-3v-31Zm9 3c-1.503 0-3.115.206-4 1-.855.764-1.646 1.413-2 3v11c.53.411 1.322.765 2 1 .678.206 1.88 1 3 1 2.035 0 3.822-1.501 5.001-3 1.21-1.528 1-3.061 1-6 0-1.205.207-3.03 0-4-.206-1-.528-1.324-1-2-.442-.705-1.263-1.618-2-2-.708-.382-.939 0-2 0ZM81.01 33.5c0 1.029-.354 1.56 0 2 .354.44 1.352 1 2 1 .384 0 .558.059 1 0 .443-.059.44-.794 1-1l1 3c-.47.235-1.144-.147-2 0-.825.147-1.38 1-2 1-1.327 0-3.145-.265-4-1-.855-.764-1-2.207-1-4v-27h4v26ZM106.013 36.5c-.884.705-2.644 1.589-4 2-1.327.411-2.497 1-4 1-1.681 0-2.763-.471-4.001-1-1.239-.558-2.204-1-3-2-.797-1.029-1.618-2.59-2-4-.384-1.41-1.001-3.237-1.001-5 0-3.762 1.32-6.031 3-8 1.681-1.969 3.876-3 7.001-3 1.003 0 1.998-.235 3.001 0 1.002.206 2.204.383 3 1 .796.617 1.499 1.854 2 3 .502 1.117 1 2.149 1 4 0 .97-.823 2.825-1 4H92.012c0 1.293-.266 2 0 3 .265 1 1.44 2.295 2 3 .56.676 1.115.618 2 1 .914.353 1.703 1 3 1 1.003 0 1.998-.647 3.001-1 1.002-.353 1.499-.53 2-1l2 2Zm-8-17c-1.74 0-2.94.089-4.001 1-1.032.911-1.794 2.796-2 5h11.001c0-2.233-.145-4.118-1-5-.855-.911-2.438-1-4-1Z" fill="#242424"/><path d="M118.015 6.5v32c0 6.53 5.271 8.272 8.001 8h61.007c3.822-.816 10.243-7.367 5.001-25-5.241-17.633-21.633-22-29.004-22h-37.004c-5.897 0-7.728 4.551-8.001 7Z" fill="#298FDA"/><path d="M142.018 33.5h-13.002v-23h2v21h11.002v2ZM144.018 18.5c.83-.5 1.908-.76 3-1 1.114-.24 2.8 0 4.001 0 1.136 0 1.323-.305 2 0 .699.305 1.651.5 2 1 .372.479.891 1.412 1.001 2 .131.588 0 1.412 0 2 0 1.306.065 2.76 0 4-.066 1.24 0 1.89 0 3 0 .805-.066 1.282 0 2 .065.718-.175 1.39 0 2h-2.001v-2h-1c-.196.305.306.695 0 1-.284.283-.585.76-1 1-.415.218-1.454-.152-2 0s-1.302 1-2 1c-.699 0-1.389-.782-2.001-1-.589-.218-.563-.608-1-1-.437-.414-.738-.434-1-1-.24-.566-1-1.282-1-2 0-.958.607-1.369 1-2 .393-.653 1.301-1.63 2-2 .721-.392 1.018-.848 2.001-1 1.004-.174 1.799 0 3 0h1c.306 0 .694-.044 1 0 .066-.653 0-1.478 0-2 0-1.197.481-1.521 0-2-.48-.479-1.733-1-3-1-.371 0-.564-.065-1 0-.415.044-1.542-.109-2.001 0-.436.087-.585.848-1 1-.393.13-.694-.174-1 0l-1-2Zm5.001 13c.611 0 1.519.152 2 0 .48-.174.651-.76 1-1 .35-.261.782.305 1 0 .24-.305-.109-.717 0-1v-3c-.306-.022-.672 0-1 0-.306-.022-.694 0-1 0-.677 0-1.345-.087-2 0-.634.065-.498-.218-1 0-.481.196-1.695.63-2.001 1-.284.348 0 1.456 0 2 0 .762.454 1.5 1 2 .546.479 1.149 0 2.001 0ZM161.02 10.5h2v9h1.001c.502-.631.235-1.652 1-2 .786-.348 2.083 0 3 0 2.119 0 3.952.65 5.001 2 1.07 1.35 1 3.17 1 6 0 2.852-.603 4.52-2 6-1.398 1.48-3.468 3-6.001 3-1.223 0-1.996-.739-3.001-1-.982-.261-1.497-.695-2-1v-22Zm7.001 9c-1.092 0-2.323.39-3 1s-1.695.89-2.001 2v9c.415.24 1.411-.13 2.001 0 .589.109 1.367 0 2 0 1.485 0 2.127.045 3-1 .896-1.045 2.001-2.78 2.001-5 0-.849-.848-2.26-1.001-3-.152-.74.328-.478 0-1-.327-.522-1.476-1.695-2-2-.502-.305-.257 0-1 0Z" fill="#fff"/></g><defs><clipPath id="a"><path fill="#fff" transform="translate(0 .5)" d="M0 0h194v47H0z"/></clipPath></defs></svg>