<svg width="20" height="20" viewBox="0 0 20 20" fill="none" xmlns="http://www.w3.org/2000/svg">
<g clip-path="url(#clip0_290_3005)">
<path d="M14.7567 15.0825C14.5883 15.2092 14.39 15.2725 14.1617 15.2725C13.96 15.2725 13.7692 15.2092 13.5883 15.0825C13.4067 14.9558 13.3158 14.7717 13.3158 14.5325V8.02167H13.2967L10.81 13.0692C10.7354 13.2314 10.6258 13.3751 10.4892 13.49C10.3683 13.5833 10.2083 13.63 10.0075 13.63C9.8075 13.63 9.64667 13.5833 9.52667 13.49C9.38978 13.3753 9.28018 13.2315 9.20583 13.0692L6.71917 8.0225H6.7V14.5317C6.70482 14.64 6.68129 14.7477 6.63175 14.8442C6.58221 14.9406 6.50836 15.0225 6.4175 15.0817C6.24711 15.2034 6.04354 15.27 5.83417 15.2725C5.605 15.2725 5.41083 15.2092 5.24917 15.0825C5.08833 14.9558 5.0075 14.7717 5.0075 14.5325V5.79833C5.0075 5.545 5.0875 5.3075 5.24917 5.0875C5.40917 4.8675 5.69667 4.7575 6.1125 4.7575C6.42083 4.7575 6.65833 4.8275 6.82583 4.9675C6.9925 5.10833 7.1425 5.31833 7.2775 5.59833L10.0083 11.2267H10.0283L12.7392 5.59833C12.8725 5.31833 13.0242 5.10833 13.1917 4.9675C13.3583 4.8275 13.5958 4.7575 13.9042 4.7575C14.3192 4.7575 14.6075 4.8675 14.7675 5.0875C14.9283 5.30833 15.0092 5.54583 15.0092 5.79917V14.5308C15.0092 14.7708 14.925 14.955 14.7575 15.0808L14.7567 15.0825ZM9.98 18.5458C14.695 18.5458 18.5458 14.6792 18.5458 9.94C18.5458 5.25667 14.71 1.45417 9.98 1.45417C5.25167 1.45417 1.455 5.23417 1.455 9.94C1.455 14.5983 5.38417 18.5458 9.98 18.5458ZM9.98 20C4.57917 20 0 15.4 0 9.94C0 4.42917 4.45 0 9.98 0C15.5108 0 20 4.45 20 9.94C20 15.4808 15.5 20 9.98 20Z" fill="#242424"/>
</g>
<defs>
<clipPath id="clip0_290_3005">
<rect width="20" height="20" fill="white"/>
</clipPath>
</defs>
</svg>
