<svg viewBox="0 0 30 30" fill="none" xmlns="http://www.w3.org/2000/svg">
<path d="M4.9475 9.63875C6.5675 12.8225 9.1775 15.4212 12.3612 17.0525L14.8363 14.5775C15.14 14.2738 15.59 14.1725 15.9838 14.3075C17.2437 14.7237 18.605 14.9488 20 14.9488C20.6187 14.9488 21.125 15.455 21.125 16.0738V20C21.125 20.6187 20.6187 21.125 20 21.125C9.43625 21.125 0.875 12.5638 0.875 2C0.875 1.38125 1.38125 0.875 2 0.875H5.9375C6.55625 0.875 7.0625 1.38125 7.0625 2C7.0625 3.40625 7.2875 4.75625 7.70375 6.01625C7.8275 6.41 7.7375 6.84875 7.4225 7.16375L4.9475 9.63875Z" fill="#298FDA"/>
</svg>
