<svg  viewBox="0 0 28 28" fill="none" xmlns="http://www.w3.org/2000/svg">
<path d="M7.9475 12.6388C9.5675 15.8225 12.1775 18.4212 15.3612 20.0525L17.8363 17.5775C18.14 17.2738 18.59 17.1725 18.9838 17.3075C20.2437 17.7237 21.605 17.9488 23 17.9488C23.6187 17.9488 24.125 18.455 24.125 19.0738V23C24.125 23.6187 23.6187 24.125 23 24.125C12.4362 24.125 3.875 15.5638 3.875 5C3.875 4.38125 4.38125 3.875 5 3.875H8.9375C9.55625 3.875 10.0625 4.38125 10.0625 5C10.0625 6.40625 10.2875 7.75625 10.7037 9.01625C10.8275 9.41 10.7375 9.84875 10.4225 10.1638L7.9475 12.6388Z" fill="#298FDA"/>
</svg>
